<?xml version="1.0" encoding="UTF-8" standalone="no"?>
<!DOCTYPE svg PUBLIC "-//W3C//DTD SVG 1.1//EN" "http://www.w3.org/Graphics/SVG/1.1/DTD/svg11.dtd">
<svg width="100%" height="100%" viewBox="0 0 238 56" version="1.1" xmlns="http://www.w3.org/2000/svg" xmlns:xlink="http://www.w3.org/1999/xlink" xml:space="preserve" xmlns:serif="http://www.serif.com/" style="fill-rule:evenodd;clip-rule:evenodd;stroke-linejoin:round;stroke-miterlimit:2;">
    <g transform="matrix(1,0,0,1,-6.21796,-29.92)">
        <g transform="matrix(0.394529,0,0,0.394529,-11.1244,24.2735)">
            <g transform="matrix(1,0,0,1,-3.58962,-30.9461)">
                <path d="M47.547,89.449L259.633,45.258L108.018,122.776L47.547,89.449Z" style="fill:rgb(20,162,0);"/>
            </g>
            <g transform="matrix(1,0,0,1,-3.58962,-30.9461)">
                <path d="M259.633,45.258L208.99,184.811L135.202,138.855L259.633,45.258Z" style="fill:rgb(20,162,0);"/>
            </g>
            <g transform="matrix(1,0,0,1,-3.58962,-30.9461)">
                <path d="M135.202,138.855L119.463,184.811L163.44,156.442L135.202,138.855Z" style="fill:rgb(14,113,0);"/>
            </g>
            <g transform="matrix(1,0,0,1,-3.58962,-30.9461)">
                <path d="M108.018,122.776L119.463,184.811L135.202,138.855L259.633,45.258L108.018,122.776Z" style="fill:rgb(17,138,0);"/>
            </g>
        </g>
        <g>
            <g transform="matrix(35.4062,0,0,35.4062,111.236,70.1227)">
                <path d="M0.105,0L0.105,-0.727L0.329,-0.727C0.375,-0.727 0.415,-0.718 0.448,-0.7C0.481,-0.682 0.506,-0.657 0.524,-0.626C0.542,-0.594 0.551,-0.557 0.551,-0.515C0.551,-0.473 0.542,-0.436 0.524,-0.405C0.506,-0.373 0.481,-0.348 0.448,-0.331C0.415,-0.313 0.375,-0.304 0.33,-0.304L0.129,-0.304L0.129,-0.346L0.328,-0.346C0.366,-0.346 0.398,-0.353 0.424,-0.366C0.451,-0.38 0.471,-0.4 0.485,-0.425C0.5,-0.45 0.507,-0.48 0.507,-0.515C0.507,-0.549 0.5,-0.579 0.485,-0.605C0.471,-0.631 0.451,-0.651 0.424,-0.665C0.398,-0.679 0.366,-0.686 0.328,-0.686L0.15,-0.686L0.15,0L0.105,0ZM0.404,-0.33L0.583,0L0.532,0L0.354,-0.33L0.404,-0.33Z" style="fill-rule:nonzero;"/>
            </g>
            <g transform="matrix(35.4062,0,0,35.4062,133.868,70.1227)">
                <path d="M0.092,0L0.092,-0.545L0.135,-0.545L0.135,0L0.092,0ZM0.114,-0.642C0.104,-0.642 0.096,-0.645 0.089,-0.652C0.082,-0.659 0.078,-0.667 0.078,-0.676C0.078,-0.686 0.082,-0.694 0.089,-0.7C0.096,-0.707 0.104,-0.71 0.114,-0.71C0.123,-0.71 0.131,-0.707 0.138,-0.7C0.145,-0.694 0.148,-0.686 0.148,-0.676C0.148,-0.667 0.145,-0.659 0.138,-0.652C0.131,-0.645 0.123,-0.642 0.114,-0.642Z" style="fill-rule:nonzero;"/>
            </g>
            <g transform="matrix(35.4062,0,0,35.4062,142.267,70.1227)">
                <path d="M0.277,0.011C0.233,0.011 0.195,-0.001 0.162,-0.025C0.13,-0.049 0.104,-0.082 0.086,-0.125C0.069,-0.167 0.06,-0.216 0.06,-0.271C0.06,-0.326 0.069,-0.375 0.087,-0.417C0.105,-0.46 0.13,-0.493 0.163,-0.517C0.196,-0.541 0.234,-0.554 0.277,-0.554C0.309,-0.554 0.336,-0.548 0.359,-0.536C0.382,-0.524 0.401,-0.508 0.417,-0.488C0.433,-0.469 0.445,-0.447 0.453,-0.424L0.457,-0.424L0.457,-0.727L0.5,-0.727L0.5,0L0.458,0L0.458,-0.119L0.453,-0.119C0.444,-0.096 0.432,-0.074 0.417,-0.054C0.401,-0.034 0.382,-0.019 0.358,-0.007C0.335,0.005 0.308,0.011 0.277,0.011ZM0.281,-0.029C0.318,-0.029 0.349,-0.039 0.376,-0.061C0.402,-0.082 0.423,-0.111 0.437,-0.147C0.451,-0.184 0.458,-0.225 0.458,-0.272C0.458,-0.318 0.451,-0.359 0.437,-0.396C0.423,-0.432 0.402,-0.461 0.376,-0.482C0.349,-0.503 0.318,-0.513 0.281,-0.513C0.243,-0.513 0.211,-0.503 0.185,-0.481C0.158,-0.46 0.138,-0.431 0.124,-0.395C0.11,-0.358 0.103,-0.317 0.103,-0.272C0.103,-0.226 0.11,-0.185 0.124,-0.148C0.138,-0.111 0.158,-0.082 0.185,-0.061C0.211,-0.039 0.243,-0.029 0.281,-0.029Z" style="fill-rule:nonzero;"/>
            </g>
            <g transform="matrix(35.4062,0,0,35.4062,164.245,70.1227)">
                <path d="M0.303,0.011C0.253,0.011 0.21,-0.001 0.174,-0.025C0.138,-0.05 0.109,-0.083 0.089,-0.125C0.07,-0.168 0.06,-0.216 0.06,-0.27C0.06,-0.325 0.07,-0.373 0.09,-0.416C0.11,-0.458 0.137,-0.492 0.172,-0.517C0.207,-0.541 0.247,-0.554 0.292,-0.554C0.323,-0.554 0.352,-0.548 0.379,-0.535C0.406,-0.523 0.431,-0.506 0.452,-0.483C0.472,-0.46 0.489,-0.432 0.501,-0.4C0.513,-0.367 0.519,-0.331 0.519,-0.29L0.519,-0.263L0.087,-0.263L0.087,-0.303L0.475,-0.303C0.475,-0.342 0.467,-0.378 0.451,-0.409C0.435,-0.441 0.413,-0.466 0.386,-0.485C0.358,-0.504 0.327,-0.513 0.292,-0.513C0.256,-0.513 0.224,-0.503 0.195,-0.483C0.167,-0.463 0.145,-0.435 0.128,-0.401C0.112,-0.367 0.103,-0.328 0.103,-0.286L0.103,-0.268C0.103,-0.223 0.111,-0.182 0.127,-0.146C0.143,-0.11 0.165,-0.081 0.195,-0.06C0.225,-0.039 0.261,-0.029 0.303,-0.029C0.332,-0.029 0.358,-0.034 0.379,-0.044C0.4,-0.054 0.418,-0.066 0.431,-0.081C0.445,-0.095 0.455,-0.109 0.462,-0.123L0.501,-0.107C0.493,-0.088 0.48,-0.07 0.463,-0.052C0.445,-0.034 0.423,-0.019 0.396,-0.007C0.37,0.005 0.339,0.011 0.303,0.011Z" style="fill-rule:nonzero;"/>
            </g>
            <g transform="matrix(35.4062,0,0,35.4062,183.054,70.1227)">
                <path d="M0.057,-0.686L0.057,-0.727L0.566,-0.727L0.566,-0.686L0.334,-0.686L0.334,0L0.289,0L0.289,-0.686L0.057,-0.686Z" style="fill-rule:nonzero;"/>
            </g>
            <g transform="matrix(35.4062,0,0,35.4062,203.775,70.1227)">
                <path d="M0.09,0L0.09,-0.545L0.132,-0.545L0.132,-0.46L0.136,-0.46C0.148,-0.488 0.168,-0.511 0.196,-0.528C0.224,-0.544 0.256,-0.553 0.292,-0.553L0.304,-0.553C0.307,-0.553 0.311,-0.553 0.314,-0.553L0.314,-0.509C0.311,-0.509 0.308,-0.51 0.304,-0.51C0.3,-0.511 0.295,-0.511 0.29,-0.511C0.259,-0.511 0.233,-0.504 0.209,-0.491C0.185,-0.478 0.167,-0.461 0.153,-0.438C0.14,-0.415 0.133,-0.389 0.133,-0.359L0.133,0L0.09,0Z" style="fill-rule:nonzero;"/>
            </g>
            <g transform="matrix(35.4062,0,0,35.4062,216.952,70.1227)">
                <path d="M0.092,0L0.092,-0.545L0.135,-0.545L0.135,0L0.092,0ZM0.114,-0.642C0.104,-0.642 0.096,-0.645 0.089,-0.652C0.082,-0.659 0.078,-0.667 0.078,-0.676C0.078,-0.686 0.082,-0.694 0.089,-0.7C0.096,-0.707 0.104,-0.71 0.114,-0.71C0.123,-0.71 0.131,-0.707 0.138,-0.7C0.145,-0.694 0.148,-0.686 0.148,-0.676C0.148,-0.667 0.145,-0.659 0.138,-0.652C0.131,-0.645 0.123,-0.642 0.114,-0.642Z" style="fill-rule:nonzero;"/>
            </g>
            <g transform="matrix(35.4062,0,0,35.4062,225.351,70.4119)">
                <path d="M0.088,0.205L0.088,-0.545L0.13,-0.545L0.13,-0.424L0.135,-0.424C0.144,-0.447 0.156,-0.469 0.172,-0.488C0.187,-0.508 0.206,-0.524 0.23,-0.536C0.253,-0.548 0.28,-0.554 0.311,-0.554C0.355,-0.554 0.393,-0.542 0.426,-0.517C0.459,-0.493 0.484,-0.46 0.502,-0.417C0.52,-0.375 0.529,-0.326 0.529,-0.271C0.529,-0.216 0.52,-0.168 0.502,-0.125C0.484,-0.083 0.458,-0.049 0.426,-0.025C0.393,-0.001 0.355,0.011 0.311,0.011C0.281,0.011 0.254,0.005 0.23,-0.006C0.207,-0.018 0.187,-0.034 0.172,-0.054C0.156,-0.074 0.144,-0.095 0.135,-0.119L0.131,-0.119L0.131,0.205L0.088,0.205ZM0.131,-0.272C0.131,-0.225 0.138,-0.184 0.152,-0.147C0.166,-0.111 0.186,-0.082 0.213,-0.061C0.239,-0.039 0.271,-0.029 0.308,-0.029C0.345,-0.029 0.377,-0.039 0.403,-0.061C0.43,-0.082 0.45,-0.111 0.464,-0.148C0.479,-0.185 0.486,-0.226 0.486,-0.272C0.486,-0.317 0.479,-0.358 0.465,-0.395C0.451,-0.431 0.431,-0.46 0.404,-0.481C0.377,-0.503 0.345,-0.513 0.308,-0.513C0.271,-0.513 0.239,-0.503 0.213,-0.482C0.186,-0.461 0.166,-0.432 0.152,-0.396C0.138,-0.359 0.131,-0.318 0.131,-0.272Z" style="fill-rule:nonzero;"/>
            </g>
        </g>
    </g>
</svg>
